<?xml version="1.0" encoding="UTF-8" standalone="no"?><!-- Generator: Gravit.io --><svg xmlns="http://www.w3.org/2000/svg" xmlns:xlink="http://www.w3.org/1999/xlink" style="isolation:isolate" viewBox="100 85 202 138" width="202pt" height="138pt"><defs><clipPath id="_clipPath_6VnWlsbFbXR4gCp0BUsgy1eYkmNh5jx1"><rect x="100" y="85" width="202" height="138"/></clipPath></defs><g clip-path="url(#_clipPath_6VnWlsbFbXR4gCp0BUsgy1eYkmNh5jx1)"><mask id="_mask_OIZgsOLnhSasd4Tfd9yzJgjAwF6sk39l"><path d=" M 200.5 214.857 C 210.182 220.057 221.25 223 233 223 C 271.082 223 302 192.082 302 154 C 302 115.918 271.082 85 233 85 C 221.25 85 210.182 87.943 200.5 93.143 C 222.218 104.761 237 127.668 237 154 C 237 180.332 222.218 203.239 200.5 214.857 Z " fill-rule="evenodd" fill="white" stroke="none"/></mask><path d=" M 200.5 214.857 C 210.182 220.057 221.25 223 233 223 C 271.082 223 302 192.082 302 154 C 302 115.918 271.082 85 233 85 C 221.25 85 210.182 87.943 200.5 93.143 C 222.218 104.761 237 127.668 237 154 C 237 180.332 222.218 203.239 200.5 214.857 Z " fill-rule="evenodd" fill="none"/><path d=" M 200.5 214.857 C 210.182 220.057 221.25 223 233 223 C 271.082 223 302 192.082 302 154 C 302 115.918 271.082 85 233 85 C 221.25 85 210.182 87.943 200.5 93.143 C 222.218 104.761 237 127.668 237 154 C 237 180.332 222.218 203.239 200.5 214.857 Z " fill-rule="evenodd" fill="none" mask="url(#_mask_OIZgsOLnhSasd4Tfd9yzJgjAwF6sk39l)" vector-effect="non-scaling-stroke" stroke-width="2" stroke="rgb(0,0,0)" stroke-linejoin="miter" stroke-linecap="square" stroke-miterlimit="3"/><mask id="_mask_YagPS2orR6vLQpgD7gUJAdbZ4F1AY86u"><path d=" M 201.5 93.143 C 191.818 87.943 180.75 85 169 85 C 130.918 85 100 115.918 100 154 C 100 192.082 130.918 223 169 223 C 180.75 223 191.818 220.057 201.5 214.857 C 179.782 203.239 165 180.332 165 154 C 165 127.668 179.782 104.761 201.5 93.143 Z " fill-rule="evenodd" fill="white" stroke="none"/></mask><path d=" M 201.5 93.143 C 191.818 87.943 180.75 85 169 85 C 130.918 85 100 115.918 100 154 C 100 192.082 130.918 223 169 223 C 180.75 223 191.818 220.057 201.5 214.857 C 179.782 203.239 165 180.332 165 154 C 165 127.668 179.782 104.761 201.5 93.143 Z " fill-rule="evenodd" fill="rgb(235,235,235)"/><path d=" M 201.5 93.143 C 191.818 87.943 180.75 85 169 85 C 130.918 85 100 115.918 100 154 C 100 192.082 130.918 223 169 223 C 180.75 223 191.818 220.057 201.5 214.857 C 179.782 203.239 165 180.332 165 154 C 165 127.668 179.782 104.761 201.5 93.143 Z " fill-rule="evenodd" fill="rgb(235,235,235)" mask="url(#_mask_YagPS2orR6vLQpgD7gUJAdbZ4F1AY86u)" vector-effect="non-scaling-stroke" stroke-width="2" stroke="rgb(0,0,0)" stroke-linejoin="miter" stroke-linecap="square" stroke-miterlimit="3"/><g clip-path="url(#_clipPath_cyrlh4hq4xMG8negpZrHHZZp7yFm6Go6)"><text transform="matrix(1,0,0,1,130,131.377)" style="font-family:'Open Sans';font-weight:400;font-size:20px;font-style:normal;fill:#000000;stroke:none;">A</text></g><defs><clipPath id="_clipPath_cyrlh4hq4xMG8negpZrHHZZp7yFm6Go6"><rect x="0" y="0" width="15" height="27.236" transform="matrix(1,0,0,1,130,110)"/></clipPath></defs><g clip-path="url(#_clipPath_ERrw9qspFskfEEFDRY09PYSMXjxyv1JI)"><text transform="matrix(1,0,0,1,260,131.377)" style="font-family:'Open Sans';font-weight:400;font-size:20px;font-style:normal;fill:#000000;stroke:none;">B</text></g><defs><clipPath id="_clipPath_ERrw9qspFskfEEFDRY09PYSMXjxyv1JI"><rect x="0" y="0" width="15" height="27.236" transform="matrix(1,0,0,1,260,110)"/></clipPath></defs></g></svg>