<?xml version="1.0" encoding="UTF-8" standalone="no"?><!-- Generator: Gravit.io --><svg xmlns="http://www.w3.org/2000/svg" xmlns:xlink="http://www.w3.org/1999/xlink" style="isolation:isolate" viewBox="359 146.382 459 167.618" width="459pt" height="167.618pt"><defs><clipPath id="_clipPath_ZUVqppWQSsjRm3PB47ydTpR7EfAfrnpw"><rect x="359" y="146.382" width="459" height="167.618"/></clipPath></defs><g clip-path="url(#_clipPath_ZUVqppWQSsjRm3PB47ydTpR7EfAfrnpw)"><mask id="_mask_WTa1b6kNdMTzhi4aInwBdL5kmBXUEwDJ"><circle vector-effect="non-scaling-stroke" cx="427.9999999999999" cy="245" r="69" fill="white" stroke="none"/></mask><circle vector-effect="non-scaling-stroke" cx="427.9999999999999" cy="245" r="69" fill="none"/><circle vector-effect="non-scaling-stroke" cx="427.9999999999999" cy="245" r="69" fill="none" mask="url(#_mask_WTa1b6kNdMTzhi4aInwBdL5kmBXUEwDJ)" stroke-width="2" stroke="rgb(0,0,0)" stroke-linejoin="miter" stroke-linecap="square" stroke-miterlimit="3"/><g clip-path="url(#_clipPath_DwLdt3AZhwUlP8W2FZtRhfpW6Slnyhdn)"><text transform="matrix(1,0,0,1,391,215.759)" style="font-family:'Open Sans';font-weight:400;font-size:20px;font-style:normal;fill:#000000;stroke:none;">A</text></g><defs><clipPath id="_clipPath_DwLdt3AZhwUlP8W2FZtRhfpW6Slnyhdn"><rect x="0" y="0" width="15" height="27.236" transform="matrix(1,0,0,1,391,194.382)"/></clipPath></defs><g clip-path="url(#_clipPath_lVdfXvvtTk6dxaejGs6w1OQPsWuTu80M)"><text transform="matrix(1,0,0,1,517,215.759)" style="font-family:'Open Sans';font-weight:400;font-size:20px;font-style:normal;fill:#000000;stroke:none;">B</text></g><defs><clipPath id="_clipPath_lVdfXvvtTk6dxaejGs6w1OQPsWuTu80M"><rect x="0" y="0" width="15" height="27.236" transform="matrix(1,0,0,1,517,194.382)"/></clipPath></defs><mask id="_mask_2QNIp73lNSKXemcVTcUDHqTgekeoudGE"><circle vector-effect="non-scaling-stroke" cx="497" cy="244.99999999999994" r="69" fill="white" stroke="none"/></mask><circle vector-effect="non-scaling-stroke" cx="497" cy="244.99999999999994" r="69" fill="none"/><circle vector-effect="non-scaling-stroke" cx="497" cy="244.99999999999994" r="69" fill="none" mask="url(#_mask_2QNIp73lNSKXemcVTcUDHqTgekeoudGE)" stroke-width="2" stroke="rgb(0,0,0)" stroke-linejoin="miter" stroke-linecap="square" stroke-miterlimit="3"/><g clip-path="url(#_clipPath_gOHvJ8qfWyE60kc4Ts69gVfntv5GgffP)"><text transform="matrix(1,0,0,1,449,250.377)" style="font-family:'Open Sans';font-weight:400;font-size:20px;font-style:normal;fill:#000000;stroke:none;">=0</text></g><defs><clipPath id="_clipPath_gOHvJ8qfWyE60kc4Ts69gVfntv5GgffP"><rect x="0" y="0" width="25" height="27.236" transform="matrix(1,0,0,1,449,229)"/></clipPath></defs><g clip-path="url(#_clipPath_iemX2CIBZLtXlZ4iBF5ZxcTd42SYaK66)"><text transform="matrix(1,0,0,1,512,250.377)" style="font-family:'Open Sans';font-weight:400;font-size:20px;font-style:normal;fill:#000000;stroke:none;">=0</text></g><defs><clipPath id="_clipPath_iemX2CIBZLtXlZ4iBF5ZxcTd42SYaK66"><rect x="0" y="0" width="25" height="27.236" transform="matrix(1,0,0,1,512,229)"/></clipPath></defs><mask id="_mask_IM0sLMcsmR9nnXj7tEFmhFjbg5uYMkwc"><circle vector-effect="non-scaling-stroke" cx="679.9999999999999" cy="245" r="69" fill="white" stroke="none"/></mask><circle vector-effect="non-scaling-stroke" cx="679.9999999999999" cy="245" r="69" fill="none"/><circle vector-effect="non-scaling-stroke" cx="679.9999999999999" cy="245" r="69" fill="none" mask="url(#_mask_IM0sLMcsmR9nnXj7tEFmhFjbg5uYMkwc)" stroke-width="2" stroke="rgb(0,0,0)" stroke-linejoin="miter" stroke-linecap="square" stroke-miterlimit="3"/><g clip-path="url(#_clipPath_uK35bRHW3pmCp5JpfTa9QAr41GV8OQat)"><text transform="matrix(1,0,0,1,638,250.377)" style="font-family:'Open Sans';font-weight:400;font-size:20px;font-style:normal;fill:#000000;stroke:none;">&#x3E;0</text></g><defs><clipPath id="_clipPath_uK35bRHW3pmCp5JpfTa9QAr41GV8OQat"><rect x="0" y="0" width="25" height="27.236" transform="matrix(1,0,0,1,638,229)"/></clipPath></defs><g clip-path="url(#_clipPath_LWtlPNCSUXEDl8aRAlVxE5BIyNOoc2Mz)"><text transform="matrix(1,0,0,1,643,215.759)" style="font-family:'Open Sans';font-weight:400;font-size:20px;font-style:normal;fill:#000000;stroke:none;">A</text></g><defs><clipPath id="_clipPath_LWtlPNCSUXEDl8aRAlVxE5BIyNOoc2Mz"><rect x="0" y="0" width="15" height="27.236" transform="matrix(1,0,0,1,643,194.382)"/></clipPath></defs><g clip-path="url(#_clipPath_Bp3jAwxAEKfPDHZ29sLX1hNoh90piA5f)"><text transform="matrix(1,0,0,1,769,215.759)" style="font-family:'Open Sans';font-weight:400;font-size:20px;font-style:normal;fill:#000000;stroke:none;">B</text></g><defs><clipPath id="_clipPath_Bp3jAwxAEKfPDHZ29sLX1hNoh90piA5f"><rect x="0" y="0" width="15" height="27.236" transform="matrix(1,0,0,1,769,194.382)"/></clipPath></defs><mask id="_mask_d8nnzUdRU8u080y0uxlAwrEer1bzIQ8G"><circle vector-effect="non-scaling-stroke" cx="749" cy="244.99999999999994" r="69" fill="white" stroke="none"/></mask><circle vector-effect="non-scaling-stroke" cx="749" cy="244.99999999999994" r="69" fill="none"/><circle vector-effect="non-scaling-stroke" cx="749" cy="244.99999999999994" r="69" fill="none" mask="url(#_mask_d8nnzUdRU8u080y0uxlAwrEer1bzIQ8G)" stroke-width="2" stroke="rgb(0,0,0)" stroke-linejoin="miter" stroke-linecap="square" stroke-miterlimit="3"/><g clip-path="url(#_clipPath_tA5r5O2t8AJSYQEMRtwF1lfLeKX3bDQd)"><text transform="matrix(1,0,0,1,449,167.759)" style="font-family:'Open Sans';font-weight:400;font-size:20px;font-style:normal;fill:#000000;stroke:none;">=0</text></g><defs><clipPath id="_clipPath_tA5r5O2t8AJSYQEMRtwF1lfLeKX3bDQd"><rect x="0" y="0" width="25" height="27.236" transform="matrix(1,0,0,1,449,146.382)"/></clipPath></defs></g></svg>