<?xml version="1.0" encoding="UTF-8" standalone="no"?><!-- Generator: Gravit.io --><svg xmlns="http://www.w3.org/2000/svg" xmlns:xlink="http://www.w3.org/1999/xlink" style="isolation:isolate" viewBox="453 268 207 138" width="207pt" height="138pt"><defs><clipPath id="_clipPath_CLfPeSdbVM6fIDn5bgx0SaaEVcc9RHxs"><rect x="453" y="268" width="207" height="138"/></clipPath></defs><g clip-path="url(#_clipPath_CLfPeSdbVM6fIDn5bgx0SaaEVcc9RHxs)"><mask id="_mask_HG3imMnPM7IUdW5lqfwIeBVWryH1DbjJ"><circle vector-effect="non-scaling-stroke" cx="522" cy="337" r="69" fill="white" stroke="none"/></mask><circle vector-effect="non-scaling-stroke" cx="522" cy="337" r="69" fill="none"/><circle vector-effect="non-scaling-stroke" cx="522" cy="337" r="69" fill="none" mask="url(#_mask_HG3imMnPM7IUdW5lqfwIeBVWryH1DbjJ)" stroke-width="2" stroke="rgb(0,0,0)" stroke-linejoin="miter" stroke-linecap="square" stroke-miterlimit="3"/><g clip-path="url(#_clipPath_Ol6xiqiv3fLZi5IkDHBjn46hZJgJ8Skm)"><text transform="matrix(1,0,0,1,480,344.759)" style="font-family:'Open Sans';font-weight:400;font-size:20px;font-style:normal;fill:#000000;stroke:none;">=0</text></g><defs><clipPath id="_clipPath_Ol6xiqiv3fLZi5IkDHBjn46hZJgJ8Skm"><rect x="0" y="0" width="25" height="27.236" transform="matrix(1,0,0,1,480,323.382)"/></clipPath></defs><g clip-path="url(#_clipPath_gCcN72fNNyjEXl1sXlDe9FeUmcU4PnSE)"><text transform="matrix(1,0,0,1,485,307.759)" style="font-family:'Open Sans';font-weight:400;font-size:20px;font-style:normal;fill:#000000;stroke:none;">A</text></g><defs><clipPath id="_clipPath_gCcN72fNNyjEXl1sXlDe9FeUmcU4PnSE"><rect x="0" y="0" width="15" height="27.236" transform="matrix(1,0,0,1,485,286.382)"/></clipPath></defs><g clip-path="url(#_clipPath_CZSdnpfN7aWaIjf6480mpmDPVQQzrrN0)"><text transform="matrix(1,0,0,1,611,307.759)" style="font-family:'Open Sans';font-weight:400;font-size:20px;font-style:normal;fill:#000000;stroke:none;">B</text></g><defs><clipPath id="_clipPath_CZSdnpfN7aWaIjf6480mpmDPVQQzrrN0"><rect x="0" y="0" width="15" height="27.236" transform="matrix(1,0,0,1,611,286.382)"/></clipPath></defs><mask id="_mask_ZiGvAJnjbrYsaaEDYlxFGMsX6Uow3oiv"><circle vector-effect="non-scaling-stroke" cx="590.9999999999999" cy="337" r="69" fill="white" stroke="none"/></mask><circle vector-effect="non-scaling-stroke" cx="590.9999999999999" cy="337" r="69" fill="none"/><circle vector-effect="non-scaling-stroke" cx="590.9999999999999" cy="337" r="69" fill="none" mask="url(#_mask_ZiGvAJnjbrYsaaEDYlxFGMsX6Uow3oiv)" stroke-width="2" stroke="rgb(0,0,0)" stroke-linejoin="miter" stroke-linecap="square" stroke-miterlimit="3"/></g></svg>