<?xml version="1.0" encoding="UTF-8" standalone="no"?><!-- Generator: Gravit.io --><svg xmlns="http://www.w3.org/2000/svg" xmlns:xlink="http://www.w3.org/1999/xlink" style="isolation:isolate" viewBox="281 223 563 127.5" width="563pt" height="127.5pt"><defs><clipPath id="_clipPath_omNMdDO8r76euEkDdSHRED27OCi0aWX9"><rect x="281" y="223" width="563" height="127.5"/></clipPath></defs><g clip-path="url(#_clipPath_omNMdDO8r76euEkDdSHRED27OCi0aWX9)"><g clip-path="url(#_clipPath_1VT5vIrMgLILjq6ZPpSOsPHL7Z7KrVXs)"><text transform="matrix(1,0,0,1,424,294.759)" style="font-family:'Open Sans';font-weight:400;font-size:20px;font-style:normal;fill:#000000;stroke:none;">OR</text></g><defs><clipPath id="_clipPath_1VT5vIrMgLILjq6ZPpSOsPHL7Z7KrVXs"><rect x="0" y="0" width="30" height="27.236" transform="matrix(1,0,0,1,424,273.382)"/></clipPath></defs><g clip-path="url(#_clipPath_jUgLZjbzFFSywOw9IiUFcW7zdJKZnNW3)"><text transform="matrix(1,0,0,1,616,294.759)" style="font-family:'Open Sans';font-weight:400;font-size:20px;font-style:normal;fill:#000000;stroke:none;">≠</text></g><defs><clipPath id="_clipPath_jUgLZjbzFFSywOw9IiUFcW7zdJKZnNW3"><rect x="0" y="0" width="14" height="27.236" transform="matrix(1,0,0,1,616,273.382)"/></clipPath></defs><mask id="_mask_CHqycdmhGlJfRXO7avkPACT48kYYeqFS"><circle vector-effect="non-scaling-stroke" cx="773" cy="286" r="60" fill="white" stroke="none"/></mask><circle vector-effect="non-scaling-stroke" cx="773" cy="286" r="60" fill="none"/><circle vector-effect="non-scaling-stroke" cx="773" cy="286" r="60" fill="none" mask="url(#_mask_CHqycdmhGlJfRXO7avkPACT48kYYeqFS)" stroke-width="2" stroke="rgb(0,0,0)" stroke-linejoin="miter" stroke-linecap="square" stroke-miterlimit="3"/><mask id="_mask_DJzcTVBd5ra8RthjTghdt576zAZmxOxG"><circle vector-effect="non-scaling-stroke" cx="714" cy="286" r="60" fill="white" stroke="none"/></mask><circle vector-effect="non-scaling-stroke" cx="714" cy="286" r="60" fill="none"/><circle vector-effect="non-scaling-stroke" cx="714" cy="286" r="60" fill="none" mask="url(#_mask_DJzcTVBd5ra8RthjTghdt576zAZmxOxG)" stroke-width="2" stroke="rgb(0,0,0)" stroke-linejoin="miter" stroke-linecap="square" stroke-miterlimit="3"/><g clip-path="url(#_clipPath_9LazILNwhMe08DzQv0kGR2bZIfbpLdSZ)"><text transform="matrix(1,0,0,1,791,294.759)" style="font-family:'Open Sans';font-weight:400;font-size:20px;font-style:normal;fill:#000000;stroke:none;">B</text></g><defs><clipPath id="_clipPath_9LazILNwhMe08DzQv0kGR2bZIfbpLdSZ"><rect x="0" y="0" width="15" height="27.236" transform="matrix(1,0,0,1,791,273.382)"/></clipPath></defs><g clip-path="url(#_clipPath_O3uj5sJf8cUEJteENGmvYM3nDHR6zhJs)"><text transform="matrix(1,0,0,1,682,294.759)" style="font-family:'Open Sans';font-weight:400;font-size:20px;font-style:normal;fill:#000000;stroke:none;">A</text></g><defs><clipPath id="_clipPath_O3uj5sJf8cUEJteENGmvYM3nDHR6zhJs"><rect x="0" y="0" width="15" height="27.236" transform="matrix(1,0,0,1,682,273.382)"/></clipPath></defs><path d=" M 743.5 338.246 L 743.5 338.246 C 752.212 343.182 762.28 346 773 346 C 806.115 346 833 319.115 833 286 C 833 252.885 806.115 226 773 226 C 762.28 226 752.212 228.818 743.5 233.754 C 734.788 228.818 724.72 226 714 226 C 680.885 226 654 252.885 654 286 C 654 319.115 680.885 346 714 346 C 724.72 346 734.788 343.182 743.5 338.246 L 743.5 338.246 L 743.5 338.246 Z  M 641 223.5 L 844 223.5 L 844 350.5 L 641 350.5 L 641 223.5 L 641 223.5 L 641 223.5 L 641 223.5 Z " fill-rule="evenodd" fill="rgb(235,235,235)"/><g><mask id="_mask_3NiSx8rxCNCzMSwUNmsHurnxLxOaMuA0"><circle vector-effect="non-scaling-stroke" cx="348" cy="287" r="60" fill="white" stroke="none"/></mask><circle vector-effect="non-scaling-stroke" cx="348" cy="287" r="60" fill="none"/><circle vector-effect="non-scaling-stroke" cx="348" cy="287" r="60" fill="none" mask="url(#_mask_3NiSx8rxCNCzMSwUNmsHurnxLxOaMuA0)" stroke-width="2" stroke="rgb(0,0,0)" stroke-linejoin="miter" stroke-linecap="square" stroke-miterlimit="3"/></g><path d=" M 281 223 L 414 223 L 414 350 L 281 350 L 281 223 Z  M 288 287 C 288 253.885 314.885 227 348 227 C 381.115 227 408 253.885 408 287 C 408 320.115 381.115 347 348 347 C 314.885 347 288 320.115 288 287 Z " fill-rule="evenodd" fill="rgb(235,235,235)"/><g clip-path="url(#_clipPath_3aWpMyyYa3ZpmjbgELZhhvfybRDvZx6r)"><text transform="matrix(1,0,0,1,340,294.759)" style="font-family:'Open Sans';font-weight:400;font-size:20px;font-style:normal;fill:#000000;stroke:none;">A</text></g><defs><clipPath id="_clipPath_3aWpMyyYa3ZpmjbgELZhhvfybRDvZx6r"><rect x="0" y="0" width="15" height="27.236" transform="matrix(1,0,0,1,340,273.382)"/></clipPath></defs><g><mask id="_mask_GwdvPNWtvaKvuEBH0k3TfjCUHh2VGFJQ"><circle vector-effect="non-scaling-stroke" cx="537" cy="287.5" r="60" fill="white" stroke="none"/></mask><circle vector-effect="non-scaling-stroke" cx="537" cy="287.5" r="60" fill="none"/><circle vector-effect="non-scaling-stroke" cx="537" cy="287.5" r="60" fill="none" mask="url(#_mask_GwdvPNWtvaKvuEBH0k3TfjCUHh2VGFJQ)" stroke-width="2" stroke="rgb(0,0,0)" stroke-linejoin="miter" stroke-linecap="square" stroke-miterlimit="3"/></g><path d=" M 470 223.5 L 603 223.5 L 603 350.5 L 470 350.5 L 470 223.5 Z  M 477 287.5 C 477 254.385 503.885 227.5 537 227.5 C 570.115 227.5 597 254.385 597 287.5 C 597 320.615 570.115 347.5 537 347.5 C 503.885 347.5 477 320.615 477 287.5 Z " fill-rule="evenodd" fill="rgb(235,235,235)"/><g clip-path="url(#_clipPath_ZCtct3bEt8ES4aWRSWBqN6wRkUHYi3pj)"><text transform="matrix(1,0,0,1,529,295.259)" style="font-family:'Open Sans';font-weight:400;font-size:20px;font-style:normal;fill:#000000;stroke:none;">B</text></g><defs><clipPath id="_clipPath_ZCtct3bEt8ES4aWRSWBqN6wRkUHYi3pj"><rect x="0" y="0" width="15" height="27.236" transform="matrix(1,0,0,1,529,273.882)"/></clipPath></defs></g></svg>